<?xml version="1.0" encoding="utf-8"?>
<!-- Generator: Adobe Illustrator 15.0.2, SVG Export Plug-In . SVG Version: 6.00 Build 0)  -->
<!DOCTYPE svg PUBLIC "-//W3C//DTD SVG 1.1//EN" "http://www.w3.org/Graphics/SVG/1.1/DTD/svg11.dtd">
<svg version="1.1" id="Layer_1" xmlns="http://www.w3.org/2000/svg" xmlns:xlink="http://www.w3.org/1999/xlink" x="0px" y="0px"
	 width="797.183px" height="939.171px" viewBox="0 0 797.183 939.171" enable-background="new 0 0 797.183 939.171"
	 xml:space="preserve">
<rect x="-1480.647" y="-181.603" fill="none" width="300" height="136"/>
<text transform="matrix(1 0 0 1 -1480.6475 -61.3047)" font-family="'KozGoPr6N-Medium-83pv-RKSJ-H'" font-size="150">PhD</text>
<rect x="-1321.296" y="-73.603" fill="none" width="125.296" height="764"/>
<text transform="matrix(1 0 0 1 -1258.6255 -66.6025)" font-family="'KozGoPr6N-ExtraLight-83pv-RKSJ-H'" font-size="150" glyph-orientation-vertical="0" writing-mode="tb">rinks</text>
<g>
	<g>
		<path fill="none" stroke="#B1C0FF" stroke-miterlimit="10" d="M-400-425.603"/>
	</g>
</g>
<polygon fill="none" stroke="#000000" stroke-width="5" stroke-miterlimit="10" points="-1466.135,-504.09 -1465.678,-660.274 
	-1330.19,-737.97 -1195.16,-659.482 -1195.616,-503.298 -1331.104,-425.603 "/>
<line fill="none" stroke="#000000" stroke-width="5" stroke-miterlimit="10" x1="-1449.882" y1="-513.411" x2="-1449.479" y2="-650.859"/>
<line fill="none" stroke="#000000" stroke-width="5" stroke-miterlimit="10" x1="-1211.814" y1="-512.714" x2="-1331.049" y2="-444.338"/>
<line fill="none" stroke="#000000" stroke-width="5" stroke-miterlimit="10" x1="-1330.245" y1="-719.234" x2="-1211.413" y2="-650.163"/>
<line fill="none" stroke="#000000" stroke-width="5" stroke-miterlimit="10" x1="-1331.167" y1="-345.266" x2="-1330.931" y2="-425.603"/>
<line fill="none" stroke="#000000" stroke-width="5" stroke-miterlimit="10" x1="-1330.363" y1="-737.97" x2="-1330.127" y2="-818.307"/>
<line fill="none" stroke="#000000" stroke-width="5" stroke-miterlimit="10" x1="-1125.703" y1="-463.926" x2="-1195.16" y2="-504.298"/>
<line fill="none" stroke="#000000" stroke-width="5" stroke-miterlimit="10" x1="-1466.135" y1="-504.095" x2="-1535.827" y2="-464.13"/>
<rect x="-1979.125" y="-413.266" fill="none" width="373.308" height="136"/>
<text transform="matrix(1 0 0 1 -1979.1245 -293.5674)" font-family="'KozGoPr6N-Light-83pv-RKSJ-H'" font-size="150">CH</text>
<text transform="matrix(0.583 0 0 0.583 -1779.9263 -243.6172)" font-family="'KozGoPr6N-Light-83pv-RKSJ-H'" font-size="150">3</text>
<text transform="matrix(1 0 0 1 -1732.2661 -293.5674)" font-family="'KozGoPr6N-Light-83pv-RKSJ-H'" font-size="150">0</text>
<rect x="-1541.125" y="-336.266" fill="none" width="373.308" height="136"/>
<text transform="matrix(1 0 0 1 -1541.1245 -216.5674)" font-family="'KozGoPr6N-Light-83pv-RKSJ-H'" font-size="150">CH</text>
<text transform="matrix(0.583 0 0 0.583 -1341.9263 -166.6172)" font-family="'KozGoPr6N-Light-83pv-RKSJ-H'" font-size="150">3</text>
<text transform="matrix(1 0 0 1 -1294.2661 -216.5674)" font-family="'KozGoPr6N-Light-83pv-RKSJ-H'" font-size="150">0</text>
<g>
	<path fill-rule="evenodd" clip-rule="evenodd" fill="#FFFFFF" d="M674.481,498.171c-0.852-0.184-0.943,0.39-1,1
		c-0.852-0.184-0.943,0.39-1,1c-1.453,0.615,0.102,1.209,0,0c0.85,0.184,0.943-0.39,1-1
		C674.331,499.354,674.425,498.781,674.481,498.171c3.25-1.416,2.68-6.654,8-6c-3.672,5.315-1.629,7.734-8,8
		c-8.947,12.72-18.82,24.513-21,44c7.773-8.227,11.596-20.403,18-30c0.074,1.742-0.225,3.109-1,4c7.049-4.959,14.102-23.891,22-28
		c-0.266,6.733-4.734,9.267-5,16c0.307,5.418-3.236,12.647-4,20c8.934-6.736,12.549-27.448,23-36c0,1.333,0,2.667,0,4
		c0.658-2.103,3.865-3.227,2-5c1.342-0.658,1.861-2.138,2-4c-1.76,0.241-2.279,1.721-2,4c-0.811,0.189-0.998,1.003-2,1
		c2.42-8.696,7.08-18.96,14-20c-7.445,25.601-16.209,51.387-20,80c-3.893,29.373-7.359,59.698-11,90
		c-7.186,59.788-18.299,119.233-26,174c-1.865,13.257-4.348,37.594-10,47c-3.717,6.184-11.734,9.729-18,15
		c-13.158,11.068-33.809,32.459-48,36c-11.984,2.99-26.746,3.673-42,6c-14.215,2.168-29.721,3.83-45,6
		c-30.218,4.29-61.863,9.4-90.001,11c-5.51,0.313-12.317,0.291-17,0c-26.261-1.632-51.88-5.488-77-8
		c-26.389-2.639-52.475-4.724-77.999-7c-8.539-0.762-22.593-2.707-31-6c-6.56-2.569-12.719-8-19-12c-13.777-8.773-26.032-16.8-39-25
		c-7.66-4.844-16.337-7.465-20-12c-4.698-5.815-6.173-18.055-8-29c-2.173-13.017-3.895-24.287-4-34c-0.067-6.137-2.767-12.862-4-20
		c-8.534-49.367-17.062-98.339-22-150c-4.438-46.439-7.29-91.739-18-129c-3.667-12.756-9.201-25.766-11-38
		c-0.363-2.467,1.15-4.457,1-7c-0.167-2.825-1.585-6.84-2-10c-0.514-3.909-1.709-7.03-1-11c4.461,8.133,13.207,12.686,18,21
		c6.377,11.064,9.953,23.792,17,35c7.014,11.155,13.301,22.238,20,33c-0.163,1.162,0.221,1.779,1,2c0.162-1.162-0.221-1.779-1-2
		c-6.936-27.398-20.574-48.093-34-69c-1.053-3.719,3.372-1.961,4-4c-2.219-4.115-8.12-4.547-12-7c-1.903-12.098-6.467-21.533-8-34
		c1.55-2.276,2.082-1.888,5-1c-2.035-9.22-10.789-16.642-15-27c-3.294-8.102-2.739-17.897-4-28c-3.85-30.844-6.448-59.858-8-91
		c-1.447-29.048-7.451-56.476-12-83c-3.373-19.67-7.978-40.067-11-60c-1.166-7.689-3.251-15.416-3-21c0.146-3.274-0.337-6.132,3-8
		c-3.59-3.73-3.054-8.468-5-13c-1.889-4.396-5.505-7.3-6-12c-0.627-5.949,2.914-14.495,7-19c14.863-16.389,56.948-25.815,94-32
		c39.453-6.586,79.952-10.25,115-12c77.262-3.858,170.404-4.752,253-1c53.322,2.422,107.68,3.585,165,12
		c23.27,3.416,50.268,9.047,74,15c27.365,6.864,58.168,15.292,68,34c7.236,13.771-4.873,27.1-6,36c-0.352,2.778,1.002,6.454,1,9
		c-0.01,10.736-3.369,22.786-5,34c-3.625,24.907-6.438,47.306-10,69c-5.021,30.583-9.303,57.087-13,85
		c-2.201,16.619-6.596,32.95-9,49c-0.309,2.06,1.162,4.1,1,6c-0.174,2.021-1.785,4.232-2,6c-1.619,13.348-3.201,26.735-6,39
		c-1.852,8.114-4.875,13.832-9,21c-3.619,6.286-8.85,14.287-10,21c-0.453,2.643,0.846,6.537,0,9c-1.229,3.577-5.803,7.983-9,12
		C697.827,474.557,682.339,485.023,674.481,498.171z M680.481,26.171c-32.641-6.739-70.043-11.346-106-15
		c-100.445-10.207-219.39-9.82-323-5c-26.919,1.252-54.473,3.807-82,7c-37.364,4.334-78.693,8.835-109,23
		c-10.109,4.725-23.589,13.537-23,22c0.65,9.365,20.872,15.258,32,19c39.684,13.346,85.909,18.34,130,23
		c121.94,12.888,267.146,15.777,393,5c46.812-4.009,93.887-9.081,133-20c12.457-3.478,26.76-7.29,34-18
		C746.737,41.214,712.417,32.765,680.481,26.171z M18.481,80.171c-0.776,0.224-1.973,0.027-2,1
		C17.257,80.947,18.454,81.144,18.481,80.171z M778.481,90.171C774.327,89.215,778.278,93.167,778.481,90.171
		C783.786,91.256,779.663,87.133,778.481,90.171z M48.481,97.171C49.136,97.827,48.062,96.752,48.481,97.171L48.481,97.171z
		 M138.481,365.171c3.293,1.841,4.636,5.185,7,8c1.086,1.293,2.785,2.565,4,4c1.072,1.268,2.165,2.772,3,4
		c8.709,12.808,16.823,26.316,26,39c4.453,6.155,10.239,11.027,15,17c4.818,6.046,6.668,14.441,14,18c4.843-11.21-9.637-25.527-4-37
		c3.798-0.68,5.907,2.455,7,7c0.396,2.396-4.555-0.555-3,3c1.54,2.126,3.609,3.724,5,6c-0.851-0.184-0.943,0.391-1,1
		c-2.995,0.202,0.956,4.153,0,0c0.851,0.185,0.943-0.39,1-1c2.085,3.151,4.62,8.091,8,7c7.378,7.955,8.706,21.96,13,33
		c-2.681,4.32-4.055,9.945-8,13c-5.275-1.793-2.827-6.34-9-6c-5.318,0.293-7.753,6.828-7,12c0.649,4.465,7.168,9.171,12,15
		c7.271,8.772,15.86,19.05,19,31c5.784,2.041,8.774,11.677,15,10c1.092-5.425-2.018-6.649-2-11c3.522,3.811,4.865,9.801,9,13
		c-0.956,4.153,2.995,0.202,0,0c-1.119-9.888-7.303-20.021-8-27c14.483,17.735,31.457,40.691,65.999,36
		c3.191-0.434,6.293-2.734,11-3c4.298,1.368,4.1,7.234,9,8c8.644-2.917,19.866,0.726,30-1c1.591-0.271,4.062-1.519,6-2
		c7.963-1.978,12.204-5.98,19-9c7.269,5.633,7.122,15.625,15,19c2.589,1.109,2.427-2.171,4-2c-0.149-0.017,1.288,5.21,5,3
		c8.524-4.211,23.967-6.607,33-7c2.555-2.112,3.138-6.196,7-7c23.665,1.664,45.237,0.239,59.001-11c6.855-5.599,11.619-16.554,19-20
		c-0.16,9.183-7.213,16.775-6,24c8.201-13.464,13.412-29.92,25-40c-5.25,12.083-13.824,20.844-17,35c10.393,2.648,14.6-9.704,21-17
		c5.717-6.52,12.797-13.995,18-19c5.775-5.557,16.816-11.191,16-20c-0.77-8.294-11.994-11.429-21-15c-1.672,1.662-4.049,2.618-4,6
		c-0.18,1.61-4.754-1.628-4,3c-0.215,5.319,3.918,8.93,3,14c-0.9,4.966-6.934,8.8-10,9c4.184-4.967,7.162-11.305,5-20
		c-8.08-8.693-23.197-11.191-25-24c-1.682-11.945,12.523-37.027,18-48c2.379-4.768,4.584-10.901,9-12
		c-1.609,3.694-1.609,13.306,0,17c1.299,3.368,7.318,2.016,9,5c-3.07,7.393,0.736,14.794,5,18c9.85,0.714,16.689-7.184,22-13
		c5.438-5.955,10.113-13.392,15-19c11.043-12.676,18.941-26.999,29-40c1.289-1.378,4.344-0.99,7-1c-0.303-2.635,1.385-3.282,4-3
		c3.76-7.573,11.371-11.295,17-17c1.832-4.732,1.957-5.14,5-8c2.76-1.109,1.875-4.547,4-7c2.506-2.893,4.779-11.583,7-16
		c4.436-8.825,7.357-21.716,12-33c3.023-7.354,8.73-13.894,11-21c1.654-5.182,0.242-11.501,4-16c3.023-1.514-0.83-4.389,0-7
		c2.504,5.458,2.566-7.509,4-14c3.24-14.686,5.383-19.71,7-38c0.713-8.077,0.885-16.133,2-24c1.174-8.29,3.422-16.234,4-23
		c0.82-9.634,2.152-15.406,4-23c1.994-1.672,3.328-4.005,4-7c-1.758-0.575-5.875,1.208-6-1c5.613-0.113,2.316-2.957,6-5
		c-56.502-1.883-120.154,10.067-178,10c5.857-0.476,13.414,0.748,16-3c-11.031,2.636-28.379-1.046-37,4
		c5.016,0.65,12.643-1.311,16,1c-95.651,0.023-190.066,3.656-281.001-4c-12.302-1.036-25.016,0.628-36.999,0
		c-65.954-3.457-128.613-16.381-190-19c-1.794,9.334,8.885,21.197,12,33c2.274,8.619,2.901,18.019,5,27
		c4.538,19.419,12.607,38.548,17,59c2.757,12.837,2.534,25.967,5,39c2.632,13.911,9.22,28.255,14,42c2.427,6.98,5.321,13.283,8,20
		c2.798,7.017,3.505,14.458,6,21c3.43,8.994,11.096,15.668,14,24c4.073-0.074,3.679,4.321,7,5
		C138.481,366.505,138.481,365.838,138.481,365.171z M224.481,111.171C214.876,109.926,219.184,114.234,224.481,111.171
		L224.481,111.171z M48.481,239.171c-3.111-42.555-13.129-78.205-20-117c-0.057-0.61-0.149-1.184-1-1
		C29.603,165.383,41.313,200.005,48.481,239.171z M738.481,123.171C739.136,123.827,738.062,122.752,738.481,123.171
		L738.481,123.171z M771.481,134.171C772.64,138.123,772.64,130.22,771.481,134.171L771.481,134.171z M764.481,169.171
		c-1.004,0.003-1.189-0.81-2-1c2.053,10.691-7.457,22.946-4,35c-4.07-4.028-1.703,6.251-4,7c0.674-0.22-0.777-3.675-1-3
		c-1.004,3.034,0.762,7.202,0,11c-0.025,0.129-1.877,0.752-2,1c-4.053,8.106,1.387,12.032-2,17c1.771,0.895,1.273,4.059,5,3
		c9.408-32.413,12.848-65.468,18-101c-1,0-2,0-3,0C768.495,149.186,764.81,157.499,764.481,169.171z M83.481,350.171
		c-6.591-1.881-13.5-8.312-19-8c5.211,11.455,15.631,17.702,24,26C87.588,361.398,85.381,355.938,83.481,350.171z M717.481,370.171
		c8.17-3.829,14.387-9.613,18-18C725.646,346.442,712.757,361.507,717.481,370.171z M79.481,366.171
		C80.096,367.625,80.689,366.07,79.481,366.171c-3.477-4.857-6.432-10.235-12-13C68.566,360.42,73.128,364.191,79.481,366.171z
		 M733.481,363.171C734.136,363.827,733.062,362.752,733.481,363.171L733.481,363.171z M647.481,404.171
		c3.105-0.561,6.139-1.193,6-5C649.702,399.059,648.104,401.128,647.481,404.171z M109.481,420.171c-0.163,1.163,0.221,1.779,1,2
		c-0.163,1.163,0.221,1.779,1,2c-0.163,1.163,0.221,1.779,1,2c0.614,1.454,1.208-0.102,0,0c0.162-1.162-0.221-1.779-1-2
		c0.162-1.162-0.221-1.779-1-2C110.644,421.009,110.261,420.392,109.481,420.171c0.125-4.125-1.738-6.262-1-11
		c-3.707-2.101-6.122-0.321-8,2C101.065,416.587,107.613,416.039,109.481,420.171z M692.481,424.171c7.018-0.98,10.416-5.584,11-13
		c-1.617-1.716-4.184-2.484-8-2C694.185,413.875,693.927,419.616,692.481,424.171z M205.481,420.171
		C204.678,426.225,210.065,420.838,205.481,420.171L205.481,420.171z M114.481,430.171
		C115.137,430.826,114.062,429.752,114.481,430.171L114.481,430.171z M116.481,446.171c6.907,5.093,9.979,14.021,16,20
		c-1.506-14.494-10.819-21.181-16-32c-1,0-2,0-3,0C113.493,439.159,117.062,440.59,116.481,446.171z M675.481,462.171
		c6.02-1.979,7.916-8.083,12-12c0-3.333,0-6.666,0-10c0.109-1.434,4.391-5.212,0-5C684.763,444.978,674.481,451.909,675.481,462.171
		z M98.481,465.171c-2.121-3.212-3.044-7.622-6-10C92.394,459.956,95.695,466.583,98.481,465.171z M123.481,493.171
		c13.974,21.025,20.007,49.993,44,61c1.016-28.128-13.354-41.624-27-60c-6.854-9.229-12.457-16.42-21-24
		c3.413-0.03,7.184,4.749,10,2c-3.379-3.621-9.831-4.169-14-7c0.162,1.162-0.221,1.779-1,2c-3.525-2.199-8.963-7.112-13-3
		c9.631,14.369,18.644,29.356,28,44C128.361,502.291,124.058,499.595,123.481,493.171z M703.481,500.171c-0.334,0-0.666,0-1,0
		c-0.777,0.89-1.076,2.258-1,4c-0.973,0.027-0.777,1.225-1,2c-1.172,0.161-0.844,1.823-1,3c-2.996,0.202,0.955,4.153,0,0
		c1.172-0.161,0.844-1.823,1-3c0.973-0.027,0.775-1.225,1-2c0.332,0,0.666,0,1,0C703.257,503.28,703.556,501.913,703.481,500.171
		c1.15-0.325,3.443-4.362,1-5C703.642,496.332,703.161,497.852,703.481,500.171z M88.481,497.171
		C89.136,497.826,88.062,496.752,88.481,497.171L88.481,497.171z M89.481,500.171C90.136,500.826,89.062,499.752,89.481,500.171
		L89.481,500.171z M92.481,502.171c-0.163,1.162,0.221,1.779,1,2c-0.163,1.162,0.221,1.779,1,2c-0.163,1.162,0.221,1.779,1,2
		c1.85,4.817,3.488,9.846,7,13c8.649,22.017,15.371,47.692,24,71c1.123,3.033,0.278,7.498,4,9c-1.322,1.307-0.218,5.293,2,6
		c-0.914-1.753-0.344-4.989-2-6c-8.112-27.888-14.621-57.379-28-80c-1.85-4.817-3.488-9.846-7-13c0.162-1.162-0.221-1.779-1-2
		c0.162-1.162-0.221-1.779-1-2C93.644,503.008,93.261,502.392,92.481,502.171C91.866,500.718,91.272,502.272,92.481,502.171z
		 M129.481,510.171C130.136,510.826,129.062,509.752,129.481,510.171L129.481,510.171z M695.481,518.171
		c-1.172,0.161-0.844,1.823-1,3c-0.334,0-0.668,0-1,0c-0.693,0.807-1.557,2.739,0,3c0.529-0.805,1.043-1.623,1-3
		C695.653,521.01,695.325,519.348,695.481,518.171c0.908-0.274,3.357-3.726,1-4C695.704,515.061,695.405,516.429,695.481,518.171z
		 M691.481,528.171c-1.172,0.161-0.844,1.823-1,3c-0.973,0.027-0.777,1.225-1,2c-1.172,0.161-0.844,1.823-1,3
		c-7.873,15.303-13.744,40.961-19,62c-1.643,6.574-5.373,13.348-4,20c7.551-27.449,15.223-54.777,23-82c1.172-0.161,0.844-1.823,1-3
		c0.973-0.027,0.775-1.225,1-2C691.653,531.01,691.325,529.348,691.481,528.171C694.519,526.989,690.397,522.866,691.481,528.171z
		 M629.481,553.171c-0.852-0.184-0.943,0.39-1,1c-1.453,0.615,0.102,1.209,0,0C629.331,554.354,629.425,553.781,629.481,553.171
		c1.768,1.878,2.918-1.19,5,1C635.444,550.495,629.569,550.195,629.481,553.171z M628.481,561.171c-4.344,5.828-8.453,12.524-12,20
		c-3.35,7.057-8.576,15.085-8,23c6.453-8.213,9.498-19.835,19-25c3.58,0.419,2.188,5.812,6,6c0.197-8.864,0.299-17.633-2-24
		C630.481,561.171,629.481,561.171,628.481,561.171z M237.481,572.171C238.64,576.122,238.64,568.22,237.481,572.171
		L237.481,572.171z M238.481,575.171C239.136,575.826,238.062,574.752,238.481,575.171L238.481,575.171z M401.48,742.171
		C401.278,739.176,397.327,743.127,401.48,742.171c3.684,5.129-11.951,0.569-17,4c-0.306-2.306,2.889-1.111,3-3
		c4.153,0.956,0.202-2.995,0,0c-23.486,5.249-49.524,1.252-64-12c-6.11-5.594-9.277-13.571-16-18c0,0.667,0,1.333,0,2
		c-10.533-5.467-19.391-12.609-26-22c2.058,12.474,13.686,16.744,20,25c1.314,1.719,1.6,4.322,3,6c2.896,2.131,8.684,6.613,8,9
		c-11.869-3.697-20.714-12.865-30-20c-9.432-7.246-19.021-13.619-28.999-20c-10.109-6.465-19.397-13.83-29-21
		c-9.31-6.951-18.445-14.729-29-20c-6.877,3.798-10.701,15.955-9,25c1.232-4.456,4.069-12.567,7-12
		c-5.793,43.359-0.531,86.888,5,128c2.884,21.438,9.186,40.439,8,55c2.683,3.984,4.752,8.581,9,11
		c12.353-10.188,36.584-13.132,49-20c1.453-0.615-0.102-1.209,0,0c-2.182,0.182-3.182-0.818-3-3c7.116-3.55,14.622-6.711,21.999-10
		c0.282,1.615-0.945,1.722-1,3c19.369-6.071,35.812-23.097,57-21c1.116-1.94,7.884-3.373,9-2c-0.727,6.752-11.461,4.478-18,7
		c-5.988,2.311-9.77,7.013-13,10c3.469,0.802,3.844-1.489,7-1c-4.653,3.013-10.056,5.277-13,10c7.56,4.61,10.746-8.109,19-9
		c-0.125-2.503-1.908-3.131,1-4c2.919-1.081,5.762-2.238,10-2c-0.309,2.358-3.473,1.86-3,5c11.567-0.009,21.797,0.097,31-1
		c2.065-5.188-6.117-2.765-3-6c3.859,2.556,6.961-0.284,11,2c1.271,0.719,1.266,3.169,3,4c1.479,0.708,3.777,0.188,6,1
		c1.105,0.404,1.382,2.707,2,3c1.396,0.661,1.879-1.171,3-1c3.229,0.492,2.267,2.921,4,3c5.302,0.241,6.602-3.125,12-7
		c0.826,2.826-1.409,2.591-1,5c16.058-0.534,31.724-0.741,47,0c2.774-1.496-1.735-4.09,1-5c13.031,4.635,20.989,14.344,27.001,26
		c-3.404,1.264-5.113,4.22-5,9c3.916,6.416,13.725,6.941,23,8c-2.055-5.611-15.115-0.218-16-7c8.418-14.473-3.836-26.072-13.001-32
		c1.162,0.163,1.779-0.221,2-1c-14.749-14.319-45.057-10.181-65-9c-3.844,3.823-4.896,10.438-12,11c-4.999-2.334-8.845-5.822-15-7
		c-1.793-3.874-6.145-5.188-12-5c-3.199-5.015-11.736,0.628-13-7c10.393,1.941,21.347,1.709,31,5c3.371,1.149,5.437,3.925,9,4
		c5.445,0.114,10.297-4.262,16-5c2.575-0.334,5.326,0.963,8,1c3.224,0.045,6.274-1.755,10-2c4.986-0.328,10.434,1.197,15,1
		c3.302-0.143,8.947-2.312,13-3c2.103,0.897,3.227,2.773,5,4c12.825,2.461,27.974,8.491,41.001,16c2.182,1.258,3.799,3.892,6,5
		c1.695,0.854,3.287-0.597,5,0c2.35,0.819,7.342,5.273,9,7c-1.453,0.615,0.102,1.209,0,0c15.68,8.319,31.121,16.878,49,23
		c1.67,4.097,5.213,7.693,7,12c0.496,1.197-1.613,4.672,2,4c0.863-4.863-2.863-5.137-2-10c4.914,1.532,8.713-3.221,11-1
		c1.244,6.272-8.389,6.909-6,11c8.59-6.077,14.643-14.69,17-27c-0.014-2.806-2.729,2.381-2-2c11.193-56.68,21.816-115.814,28-177
		c0.412-4.086-1.205-9.395,2-13c-0.121,4.787,0.283,9.05,2,12c1.436-10.078,0.803-21.36,0-34c-0.812-12.797-1.449-27.516-9-33
		c-16.846,28.154-33.121,56.879-63,72c-17.982,16.018-37.77,30.23-57,45c-2.137,3.196-4.707,5.96-7,9c-6.678,0.989-7.695,7.639-15,8
		c4.641-7.692,13.166-11.5,16-21c6.701-5.965,13.479-11.854,16-22c-4.609,1.725-6.664,6.004-8,11c-2.871-0.304-6.424,1.35-8,4
		c-1.018-0.649-1.035-2.299-3-2c-1.875,5.845-6.025,0.285-9,7c1.793,0.127,2.109-1.224,4-1c-11.691,14.107-22.029,30.201-44.001,34
		c-9.407,1.626-19.528,0.521-32,1C408.193,747.458,406.695,742.956,401.48,742.171z M606.481,606.171
		C607.136,606.826,606.062,605.752,606.481,606.171L606.481,606.171z M239.481,616.171
		C240.136,616.826,239.062,615.752,239.481,616.171L239.481,616.171z M240.481,618.171
		C241.136,618.826,240.062,617.752,240.481,618.171L240.481,618.171z M243.481,624.171c1.017,3.65,1.387,7.946,4,10
		c-0.956,4.153,2.995,0.202,0,0C246.705,630.28,246.335,625.984,243.481,624.171C244.438,620.018,240.486,623.969,243.481,624.171z
		 M444.48,626.171c1.462,1.344,7.921,2.044,8-1C448.939,624.734,446.79,623.632,444.48,626.171z M351.48,627.171
		c-2.594-1.073-4.904-2.43-9-2C341.285,629.424,350.054,628.854,351.48,627.171z M559.481,627.171c-2.861,4.139-6.383,7.617-8,13
		C555.716,637.406,558.382,633.071,559.481,627.171C560.935,626.556,559.38,625.962,559.481,627.171z M415.48,630.171
		c0.667,0,1.333,0,2,0c0.055-1.278,1.282-1.385,1-3c-0.667,0-1.333,0-2,0C416.426,628.449,415.198,628.556,415.48,630.171z
		 M409.48,642.171c-0.581,3.914,0.86,5.807,2,8c5.485,0.152,10.774,0.107,15-1c1.47-3.804-4.47-0.196-3-4
		c2.528-3.387,6.125-3.342,9-1c-0.318,2.348-3.095,2.238-4,4c15.312-1.021,34.679,2.012,40-9
		C449.547,634.708,427.067,639.161,409.48,642.171z M329.48,639.171c-2.227,3.271,9.646,0.986,9,6c-1.742,0.075-3.11-0.224-4-1
		c4.907,7.336,28.926,4.271,37,2c-1.121-3.149-0.09-2.264,0-6C359.917,638.008,342.087,636.979,329.48,639.171z M543.481,649.171
		c0.293-2.039,2.705-1.961,3-4C544.276,644.749,540.966,648.166,543.481,649.171z M273.48,650.171
		C274.136,650.826,273.062,649.752,273.48,650.171L273.48,650.171z M502.481,656.171
		C503.136,656.826,502.062,655.752,502.481,656.171L502.481,656.171z M275.48,661.171c-0.776,0.224-1.973,0.027-2,1
		C274.257,661.947,275.453,662.144,275.48,661.171z M521.481,662.171C525.28,664.937,525.876,658.503,521.481,662.171
		L521.481,662.171z M553.481,671.171C554.64,675.122,554.64,667.22,553.481,671.171L553.481,671.171z M530.481,683.171
		c0.057-0.61,0.148-1.184,1-1c-0.113-1.22-0.299-2.368-2-2C529.638,681.348,529.31,683.01,530.481,683.171z M525.481,698.171
		c-0.852-0.184-0.943,0.39-1,1c-4.406-0.186-0.283,3.937,0,0C525.331,699.354,525.425,698.781,525.481,698.171
		c5.818-1.981,17.297-11.044,8-16C531.161,687.852,530.409,695.099,525.481,698.171z M262.481,690.171c-0.925-1.742,0.034-5.367-3-5
		C257.407,687.229,259.484,690.243,262.481,690.171z M182.481,819.171c1.162,0.162,1.779-0.221,2-1c8.998-0.074,8.041,6.596,13,12
		c-2.532-34.161-8.554-70.729-11-104c-0.768-10.437,0.211-21.71-4-31c-0.714,3.287-0.475,7.525-4,8c-3.869-4.798-6.865-10.469-12-14
		c0.578,2.569,6.949,10.969,2,7c-0.614,4.375-1.338,5.45-4,9c-3.664,4.885-5.057,11.152-7,20c-3.442,15.675,1.239,43.075,6,57
		c-1.78,11.864,4.909,23.694,6,36c5.452-0.786,1.512,7.821,8,6c3.149,0.483,0.749-4.584,3-5
		C179.189,823.078,183.772,823.078,182.481,819.171z M637.481,693.171C638.64,697.122,638.64,689.22,637.481,693.171
		L637.481,693.171z M626.481,756.171c-0.049,4.951-1.182,8.819-2,13c3.402-1.085,2.287-5.34,3-8c1.75-6.525,2.602-13.611,4-22
		c1.219-7.308,6.223-14.456,3-24c-3.258,7.742-2.393,19.607-6,27c1.99-14.01,2.135-29.864,7-41c-0.668,4.446-2.98,10.41,0,13
		c1.205-6.411,1.855-13.233,1-19c-1.182,1.485-0.865,4.468-4,4c0.15-2.483-0.518-4.15-2-5c-3.738,31.692-7.891,62.878-13,93
		c-2.441,14.392-7.676,28.627-7,43C619.081,810.88,618.063,783.221,626.481,756.171z M165.481,697.171
		C166.64,701.122,166.64,693.22,165.481,697.171L165.481,697.171z M269.48,697.171C270.136,697.826,269.062,696.752,269.48,697.171
		L269.48,697.171z M272.48,700.171C273.136,700.826,272.062,699.752,272.48,700.171L272.48,700.171z M349.48,705.171
		c0.464,2.81,8.54,4.28,9,1C355.921,705.381,351.427,703.519,349.48,705.171z M433.48,709.171c3.418,1.904,11.121,0.825,13-2
		C443.062,705.267,435.359,706.346,433.48,709.171z M413.48,710.171c2.333,0.304,4.309,2.135,5-1
		C417.207,707.809,413.582,707.626,413.48,710.171z M466.48,727.171C467.136,727.826,466.062,726.752,466.48,727.171L466.48,727.171
		z M461.48,729.171c-1.547,3.786-4.971,5.696-6,10C459.413,737.771,461.029,734.053,461.48,729.171
		C464.476,728.969,460.524,725.018,461.48,729.171z M349.48,740.171c0.056-3.663-4.106-1.911-6-3c-3.39-1.949-5.036-5.792-8-8
		C337.217,735.768,342.683,738.636,349.48,740.171z M388.48,740.171c3.494-3.215,9.631-3.664,14-1
		C401.394,728.123,387.691,734.535,388.48,740.171z M358.48,742.171c2.48,0.147,4.853,0.187,5-2
		C361,740.023,358.628,739.984,358.48,742.171z M437.48,745.171C432.798,744.083,438.568,749.854,437.48,745.171
		c3.357,1.263,10.543,1.538,11-3C442.804,743.155,440.35,742.893,437.48,745.171z M414.48,745.171c-1.987-0.013-1.271-2.729-4-2
		C409.428,745.7,413.853,747.604,414.48,745.171z M628.481,770.171C627.028,770.786,628.583,771.38,628.481,770.171
		c3.018,1.542,2.631-5.175,1-5C630.308,767.997,628.071,767.762,628.481,770.171z M624.481,771.171
		C623.636,777.086,625.054,767.159,624.481,771.171L624.481,771.171z M626.481,783.171
		C624.063,786.525,629.835,780.754,626.481,783.171L626.481,783.171z M622.481,805.171c0.271-1.361-0.619-3.903-1-2
		C621.208,804.532,622.101,807.074,622.481,805.171z M457.48,809.171c-0.775,0.225-1.973,0.027-2,1
		C456.257,809.947,457.453,810.144,457.48,809.171z M617.481,810.171C618.64,814.122,618.64,806.22,617.481,810.171L617.481,810.171
		z M374.48,822.171C371.443,825.54,378.178,825.203,374.48,822.171L374.48,822.171z M285.48,833.171
		C286.639,837.122,286.639,829.22,285.48,833.171L285.48,833.171z M267.48,837.171c1.721,0.054,2.563-0.77,3-2
		C268.76,835.117,267.917,835.94,267.48,837.171z M348.48,839.171c1.453-0.547,5.169,1.169,5-1
		C352.207,836.809,348.582,836.626,348.48,839.171z M300.48,847.171c1.721,0.054,2.563-0.77,3-2c-3.236-0.569-5.03,0.304-6,2
		c-0.299,1.966,1.351,1.983,2,3c-4.114,0.553-5.256,4.078-5,9c-1.434,2.566-6.852,1.148-7,5c10.515,0.181,17.715-2.952,26-5
		c2.744-5.368,0.359-6.632-1-12c0.685-2.72,9.232-6.876,5-8C313.066,842.13,305.415,851.256,300.48,847.171z M332.48,841.171
		C333.136,841.826,332.062,840.752,332.48,841.171L332.48,841.171z M494.481,842.171c0.729,2.271,3.008,2.991,5,4
		C499.136,843.516,496.856,842.796,494.481,842.171C494.667,837.766,490.544,841.888,494.481,842.171z M354.48,842.171
		c-1.454-1.546-5.119-0.881-8-1C345.466,844.598,353.992,843.553,354.48,842.171z M282.48,843.171c-1.862,0.956-3.342-2.995-4,0
		C279.094,843.463,282.33,845.658,282.48,843.171z M305.48,843.171C306.639,847.122,306.639,839.22,305.48,843.171L305.48,843.171z
		 M299.48,844.171C300.136,844.826,299.062,843.752,299.48,844.171L299.48,844.171z M474.481,847.171
		c-1.773-0.009-2.898-5.613-5.001-2C471.254,845.18,472.378,850.784,474.481,847.171z M468.48,848.171c-0.012-1.009-1.753-1.258-2,0
		C466.691,849.38,467.59,848.786,468.48,848.171z M327.48,850.171c-4.48,1.423-8.559-2.697-11,0
		C319.491,850.638,326.307,854.03,327.48,850.171z M368.48,851.171c2.829-0.171,6.86,0.86,7-2
		C372.651,849.342,368.62,848.311,368.48,851.171z M463.48,850.171C464.136,850.826,463.062,849.752,463.48,850.171L463.48,850.171z
		 M445.48,852.171c2.48,0.147,4.853,0.187,5-2C448,850.023,445.628,849.984,445.48,852.171z M190.481,852.171
		C191.136,852.826,190.062,851.752,190.481,852.171L190.481,852.171z M340.48,854.171c1,0,2,0,3,0c-0.043-1.377,0.471-2.195,1-3
		c-1.333,0-2.667,0-4,0C340.48,852.171,340.48,853.171,340.48,854.171z M351.48,853.171c3.27,0.165,6.465,2.313,7-2
		C355.651,851.342,351.62,850.311,351.48,853.171z M411.48,853.171C412.136,853.826,411.062,852.752,411.48,853.171L411.48,853.171z
		 M374.48,855.171c2.271-0.729,7.802,1.802,7-2C379.694,854.385,375.663,853.354,374.48,855.171z M440.48,855.171
		c5.032,1.746,16.341,2.936,19-2C452.371,855.108,447.544,853.188,440.48,855.171z M420.48,856.171
		C421.136,856.826,420.062,855.752,420.48,856.171L420.48,856.171z M425.48,855.171c-0.775,0.224-1.973,0.027-2,1
		C424.257,855.947,425.453,856.144,425.48,855.171z M419.48,856.171c-4,0-8,0-12,0C408.476,860.542,417.655,857.465,419.48,856.171z
		 M619.481,864.171c0.871-3.206-1.539-3.128-3-4C616.312,862.674,618.017,863.302,619.481,864.171z M174.481,869.171
		c-0.075-1.742,0.223-3.11,1-4C172.071,864.418,171.581,868.991,174.481,869.171z M540.481,869.171c9.416-3.613,15.729,3.265,23,5
		c-2.678-9.53-15.783-8.302-25-7C539.7,867.284,540.849,867.47,540.481,869.171z M600.481,869.171c-0.908,0.274-3.359,3.726-1,4
		C600.257,872.28,600.556,870.913,600.481,869.171C601.935,868.556,600.38,867.962,600.481,869.171z M226.481,877.171
		c5.485-1.848,11.113-3.553,14-8C233.423,869.445,227.178,870.534,226.481,877.171z M208.481,875.171c0.474-3.141-1.247-4.086-3-5
		C206.405,871.913,205.447,875.538,208.481,875.171z M572.481,881.171C571.866,879.718,571.272,881.272,572.481,881.171
		c0.137,4.196,1.822,6.843,4,9c1.801-3.04-0.104-9.483-3-11C573.644,880.334,573.261,880.95,572.481,881.171z M617.481,885.171
		C618.136,885.826,617.062,884.752,617.481,885.171L617.481,885.171z M175.481,889.171
		C176.136,889.826,175.062,888.752,175.481,889.171L175.481,889.171z M258.481,900.171c0.525-2.555,1.326-3.5-1-5
		C257.986,898.312,255.124,899.257,258.481,900.171z M520.481,896.171C521.136,896.826,520.062,895.752,520.481,896.171
		L520.481,896.171z M566.481,910.171C567.136,910.826,566.062,909.752,566.481,910.171L566.481,910.171z M226.481,916.171
		C227.136,916.826,226.062,915.752,226.481,916.171L226.481,916.171z"/>
	<path fill-rule="evenodd" clip-rule="evenodd" fill="#FFFFFF" d="M716.481,250.171c-0.555,0.003-1.135-0.81,0-1
		C716.481,249.505,716.481,249.838,716.481,250.171z"/>
	<path fill-rule="evenodd" clip-rule="evenodd" fill="#FFFFFF" d="M138.481,365.171
		C137.272,365.273,137.866,363.718,138.481,365.171L138.481,365.171z"/>
	<path fill-rule="evenodd" clip-rule="evenodd" fill="#FFFFFF" d="M539.481,424.171c6.129,15.567-6.961,34.355,0,51
		c1.596,2.771,8.416,5.538,7,8c-29.273-2.035-55.248,1.522-77.001,11c-9.982,4.35-20.088,8.702-26,14c-5.111,4.58-7.877,12.02-12,17
		c-3.981,4.811-9.033,7.407-13,12c-17.265-3.068-22.11-18.557-35-26c0-2,0-4,0-6c-7.771-2.998-18.496-4.574-15-16
		c3.456-0.877,6.928-1.739,9-4c4.378,1.955,7.065,5.602,11,8c4.773-0.894,4.302-7.032,8-9c44.453-0.037,86.335-4.997,112.001-32
		c1.135-1.194,0.74-3.415,2-5c0.961-1.208,3.117-2.054,4-3c1.85-1.986,4.059-5.38,6-7c5.119-4.272,13.906-6.02,16-13
		C537.481,424.171,538.481,424.171,539.481,424.171z"/>
	<path fill-rule="evenodd" clip-rule="evenodd" fill="#FFFFFF" d="M234.481,445.171c0.666,0,1.333,0,2,0
		c7.407,2.17,14.681,7.192,19,13c2.495,3.356,4.989,9.509,5,15c-6.584,5.416-16.508,7.492-25,11
		C238.238,471.335,233.284,459.567,234.481,445.171z"/>
	<path fill-rule="evenodd" clip-rule="evenodd" fill="#FFFFFF" d="M111.481,468.171C106.177,469.255,110.3,465.133,111.481,468.171
		L111.481,468.171z"/>
	<path fill-rule="evenodd" clip-rule="evenodd" fill="#FFFFFF" d="M111.481,468.171
		C112.689,468.069,112.096,469.624,111.481,468.171L111.481,468.171z"/>
	<path fill-rule="evenodd" clip-rule="evenodd" fill="#FFFFFF" d="M119.481,470.171
		C118.272,470.272,118.866,468.718,119.481,470.171L119.481,470.171z"/>
	<path fill-rule="evenodd" clip-rule="evenodd" fill="#FFFFFF" d="M720.481,470.171C720.38,468.962,721.935,469.556,720.481,470.171
		L720.481,470.171z"/>
	<path fill-rule="evenodd" clip-rule="evenodd" fill="#FFFFFF" d="M122.481,491.171
		C121.272,491.272,121.866,489.718,122.481,491.171L122.481,491.171z"/>
	<path fill-rule="evenodd" clip-rule="evenodd" fill="#FFFFFF" d="M122.481,491.171c0.779,0.221,1.162,0.838,1,2
		C122.702,492.95,122.318,492.333,122.481,491.171z"/>
	<path fill-rule="evenodd" clip-rule="evenodd" fill="#FFFFFF" d="M682.481,492.171C682.38,490.962,683.935,491.556,682.481,492.171
		L682.481,492.171z"/>
	<path fill-rule="evenodd" clip-rule="evenodd" fill="#FFFFFF" d="M677.481,502.171C678.64,498.22,678.64,506.122,677.481,502.171
		L677.481,502.171z"/>
	<path fill-rule="evenodd" clip-rule="evenodd" fill="#FFFFFF" d="M675.481,506.171
		C675.062,505.752,676.136,506.826,675.481,506.171L675.481,506.171z"/>
	<path fill-rule="evenodd" clip-rule="evenodd" fill="#FFFFFF" d="M687.481,506.171
		C691.634,505.215,687.683,509.166,687.481,506.171L687.481,506.171z"/>
	<path fill-rule="evenodd" clip-rule="evenodd" fill="#FFFFFF" d="M557.481,511.171C557.38,509.962,558.935,510.556,557.481,511.171
		L557.481,511.171z"/>
	<path fill-rule="evenodd" clip-rule="evenodd" fill="#FFFFFF" d="M556.481,512.171c0.057-0.61,0.148-1.184,1-1
		C557.425,511.781,557.331,512.354,556.481,512.171z"/>
	<path fill-rule="evenodd" clip-rule="evenodd" fill="#FFFFFF" d="M671.481,514.171C671.38,512.962,672.935,513.556,671.481,514.171
		L671.481,514.171z"/>
	<path fill-rule="evenodd" clip-rule="evenodd" fill="#FFFFFF" d="M253.481,538.171
		C252.272,538.272,252.866,536.718,253.481,538.171L253.481,538.171z"/>
	<path fill-rule="evenodd" clip-rule="evenodd" fill="#FFFFFF" d="M341.48,643.171c0.161-1.172,1.823-0.844,3-1
		C344.319,643.343,342.657,643.015,341.48,643.171z"/>
	<path fill-rule="evenodd" clip-rule="evenodd" fill="#FFFFFF" d="M434.48,643.171c0.161-1.172,1.823-0.844,3-1
		C437.319,643.343,435.657,643.015,434.48,643.171z"/>
	<path fill-rule="evenodd" clip-rule="evenodd" fill="#FFFFFF" d="M307.48,715.171c0.556-0.003,1.135,0.811,0,1
		C307.48,715.838,307.48,715.504,307.48,715.171z"/>
	<path fill-rule="evenodd" clip-rule="evenodd" fill="#FFFFFF" d="M628.481,742.171c-0.596,2.071,1.236,6.569-1,7
		C628.075,747.1,626.245,742.602,628.481,742.171z"/>
	<path fill-rule="evenodd" clip-rule="evenodd" fill="#FFFFFF" d="M626.481,756.171c0.547-1.453-1.168-5.168,1-5
		C626.935,752.624,628.649,756.339,626.481,756.171z"/>
	<path fill-rule="evenodd" clip-rule="evenodd" fill="#FFFFFF" d="M357.48,803.171c-0.758,3.646-3.192-0.096-7,1
		C350.499,801.265,356.132,801.807,357.48,803.171z"/>
	<path fill-rule="evenodd" clip-rule="evenodd" fill="#FFFFFF" d="M184.481,818.171c-0.667,0-1.334,0-2,0
		c0.484-1.182,1.066-2.268,2-3C184.481,816.171,184.481,817.171,184.481,818.171z"/>
	<path fill-rule="evenodd" clip-rule="evenodd" fill="#FFFFFF" d="M182.481,818.171c0,0.333,0,0.667,0,1
		C181.926,819.174,181.346,818.36,182.481,818.171z"/>
	<path fill-rule="evenodd" clip-rule="evenodd" fill="#FFFFFF" d="M421.48,818.171c1,0,2,0,3,0c-0.421,1.912-0.362,4.305-3,4
		C421.48,820.838,421.48,819.504,421.48,818.171z"/>
	<path fill-rule="evenodd" clip-rule="evenodd" fill="#FFFFFF" d="M324.48,822.171C324.379,820.962,325.934,821.556,324.48,822.171
		L324.48,822.171z"/>
	<path fill-rule="evenodd" clip-rule="evenodd" fill="#FFFFFF" d="M304.48,851.171c2.169-0.169,0.453,3.547,1,5
		c-0.89,0.776-2.258,1.075-4,1c0.732-0.934,1.818-1.515,3-2c-0.161-1.172-1.823-0.844-3-1
		C301.175,851.865,304.369,853.06,304.48,851.171z"/>
	<path fill-rule="evenodd" clip-rule="evenodd" fill="#FFFFFF" d="M483.481,856.171C483.583,857.38,482.028,856.786,483.481,856.171
		L483.481,856.171z"/>
	<path fill-rule="evenodd" clip-rule="evenodd" fill="#FFFFFF" d="M299.48,858.171C299.062,857.752,300.136,858.826,299.48,858.171
		L299.48,858.171z"/>
	<g>
		<path fill="#FFFFFF" d="M17.481-67.829"/>
		<g>
			<path fill="none" stroke="#000000" stroke-miterlimit="10" d="M17.481-67.829"/>
		</g>
	</g>
</g>
<text transform="matrix(0.583 0 0 0.583 802.0889 1457.9971)"><tspan x="0" y="0" fill="#FFFFFF" font-family="'KozGoPr6N-Light-83pv-RKSJ-H'" font-size="200">may there be champagne for your real friends</tspan><tspan x="492.094" y="411.664" fill="#FFFFFF" font-family="'KozGoPr6N-Light-83pv-RKSJ-H'" font-size="200">and real pain for your sham friends</tspan></text>
</svg>
